<svg width="73" height="73" viewBox="0 0 73 73" fill="none" xmlns="http://www.w3.org/2000/svg">
<path fill-rule="evenodd" clip-rule="evenodd" d="M68.2392 14.1549H62.9254C63.6263 13.0456 64.0889 11.8005 64.2207 10.4836C64.6421 6.27516 62.4257 2.50254 58.6524 0.829956C55.184 -0.707464 51.2864 -0.07898 48.4797 2.46661L41.77 8.54757C40.4632 7.11836 38.5848 6.22012 36.5 6.22012C34.4115 6.22012 32.5301 7.12122 31.223 8.55484L24.5048 2.4659C21.6935 -0.0796928 17.7975 -0.705753 14.3307 0.830811C10.5583 2.50354 8.34153 6.27744 8.76414 10.4858C8.89631 11.8016 9.35854 13.0462 10.0593 14.1549H4.76083C2.1314 14.1549 0 16.2864 0 18.9157V26.057C0 27.3716 1.06577 28.4375 2.38048 28.4375H70.6197C71.9342 28.4375 73.0001 27.3717 73.0001 26.057V18.9157C73 16.2864 70.8686 14.1549 68.2392 14.1549ZM29.3587 13.3614V14.1549H18.1602C15.2014 14.1549 12.8728 11.3966 13.6118 8.31602C13.9373 6.95939 14.9165 5.80294 16.183 5.21751C17.9222 4.41366 19.8487 4.67172 21.3094 5.99385L29.3607 13.2913C29.3606 13.2958 29.3605 13.3003 29.3603 13.3048C29.3602 13.3102 29.3599 13.3155 29.3597 13.3209C29.3592 13.3344 29.3587 13.3478 29.3587 13.3614ZM59.497 9.85159C59.3196 12.3257 57.0847 14.1552 54.6043 14.1552H43.6413V13.3617C43.6413 13.3532 43.6412 13.3446 43.6409 13.3361C43.6407 13.3294 43.6405 13.3227 43.6403 13.3159C43.6399 13.3032 43.6394 13.2905 43.6393 13.2777L47.9925 9.33194L51.5658 6.09308C52.7854 4.98768 54.4919 4.47169 56.0694 4.94219C58.3331 5.61744 59.6625 7.54253 59.497 9.85159ZM4.76083 33.1984V68.1115C4.76083 70.7409 6.89223 72.8723 9.52166 72.8723H31.739V33.1984H4.76083ZM41.2608 72.8723V33.1984H68.239V68.1115C68.239 70.7409 66.1076 72.8723 63.4782 72.8723H41.2608Z" fill="black"/>
</svg>
