<svg width="55" height="73" viewBox="0 0 55 73" fill="none" xmlns="http://www.w3.org/2000/svg">
<path d="M47.9063 27.375H45.625V18.25C45.625 8.18513 37.4399 0 27.375 0C17.3101 0 9.125 8.18513 9.125 18.25V27.375H6.84375C3.07208 27.375 0 30.444 0 34.2188V66.1563C0 69.931 3.07208 73 6.84375 73H47.9063C51.6779 73 54.75 69.931 54.75 66.1563V34.2188C54.75 30.444 51.6779 27.375 47.9063 27.375ZM15.2083 18.25C15.2083 11.5401 20.6651 6.08333 27.375 6.08333C34.0849 6.08333 39.5417 11.5401 39.5417 18.25V27.375H15.2083V18.25Z" fill="#FF0000"/>
</svg>
